# xmcd
#
# Track frame offsets:
#	150
#	13940
#	32001
#	49569
#	65156
#	84660
#	101667
#	116079
#	129857
#	148049
#	166211
#	190817
#	208916
#	226947
#	246700
#
# Disc length: 3496 seconds
#
# Revision: 0
# Processed by: cddbd v1.5.2PL0 Copyright (c) Steve Scherf et al.
# Submitted via: audiograbber 1.83.01
#
DISCID=d90da60f
DTITLE=Chartbuster - Hot Country Hits  Vol 179
DYEAR=1999
DGENRE=
TTITLE0=Michael Peterson - Sure Feels real Good
TTITLE1=Dixie Chicks - Ready to run
TTITLE2=T Graham Brown - Never in a Million Years
TTITLE3=Steve Wariner - Im already taken
TTITLE4=Jo Dee Messina - Silver Thunderbird
TTITLE5=Sons of the Desert - Albuquerque
TTITLE6=Clinton Gregory - Rocking the Country
TTITLE7=Roger Springer Band - Aint nothing but a Cloud
TTITLE8=John Berry - Love is for Giving
TTITLE9=Shane McAnally - Are your Eyes Still Blue
TTITLE10=Faith Hill - When you Cry
TTITLE11=Brady Seals - The Best is yet to Come
TTITLE12=Jason Sellers - A Matter of Time
TTITLE13=Charlie Robison - Your not the Best
TTITLE14=Rebecca Lynn Howard - When my Dreams come True
EXTD=
EXTT0=
EXTT1=
EXTT2=
EXTT3=
EXTT4=
EXTT5=
EXTT6=
EXTT7=
EXTT8=
EXTT9=
EXTT10=
EXTT11=
EXTT12=
EXTT13=
EXTT14=
PLAYORDER=
